<svg width="18" height="18" viewBox="0 0 18 18" fill="none" xmlns="http://www.w3.org/2000/svg">
<path fill-rule="evenodd" clip-rule="evenodd" d="M2.23298 1.47211C1.36304 1.58232 0.691036 2.26505 0.583039 3.14836C0.55478 3.37945 0.556101 14.6231 0.584416 14.8541C0.693451 15.7439 1.35898 16.4063 2.26127 16.523C2.45273 16.5477 9.99278 16.5477 10.1842 16.523C10.8445 16.4375 11.395 16.0513 11.6753 15.4766C11.833 15.1534 11.882 14.8958 11.882 14.3911V14.097L11.4151 14.2144L10.9482 14.3318L10.9368 14.6118C10.9246 14.9084 10.9033 14.9956 10.8 15.1719C10.7389 15.2762 10.5514 15.4505 10.4452 15.5018C10.2307 15.6053 10.4693 15.6001 6.17429 15.5947L2.21411 15.5898L2.10596 15.5485C1.812 15.4362 1.57948 15.1617 1.52527 14.863C1.51282 14.7943 1.50803 12.768 1.51125 8.93022L1.51614 3.10169L1.56135 2.98851C1.67814 2.69625 1.91074 2.49306 2.20904 2.42273C2.30934 2.39908 2.62316 2.3948 4.27503 2.39457L6.22275 2.39429V4.07073C6.22275 5.49313 6.22715 5.77234 6.25171 5.9132C6.35229 6.49004 6.72773 6.89726 7.30745 7.05831C7.45762 7.10004 7.46679 7.10026 9.19858 7.10594L10.9388 7.11164V7.75694V8.40225L11.4114 7.93078L11.8839 7.45932L11.8766 6.74248C11.8703 6.1301 11.8645 6.00925 11.8363 5.91314C11.7947 5.77156 11.7143 5.59633 11.6439 5.49415C11.5635 5.3774 8.01751 1.82536 7.87894 1.7227C7.75064 1.62768 7.5853 1.54636 7.41484 1.49445C7.31552 1.46419 7.12171 1.46149 4.83624 1.45855C3.47707 1.45681 2.3056 1.4629 2.23298 1.47211ZM7.26732 2.46044C7.34085 2.49532 10.86 6.02 10.9075 6.10629L10.9415 6.16809L9.2188 6.16288L7.49609 6.15769L7.42063 6.11699C7.33235 6.06933 7.25978 5.99544 7.21056 5.90303C7.17711 5.84023 7.17515 5.75398 7.17028 4.13451C7.16655 2.88787 7.17083 2.43202 7.1863 2.43202C7.19792 2.43202 7.23438 2.44481 7.26732 2.46044ZM15.2108 5.34484C15.0575 5.37981 14.8649 5.46934 14.724 5.57113C14.6601 5.61723 13.5539 6.71034 12.2657 8.00025C9.76326 10.5059 9.8115 10.4542 9.67813 10.7746C9.64495 10.8543 9.5262 11.3038 9.39754 11.8365L9.17449 12.7602L8.55224 12.7651L7.92996 12.77L7.84624 12.6142C7.64432 12.2384 7.48715 12.0618 7.25668 11.9516C7.11133 11.8822 6.88285 11.8262 6.74703 11.8267C6.51805 11.8276 6.24979 11.9332 6.04288 12.1039L5.92329 12.2026L5.89497 12.1041C5.87939 12.0499 5.80154 11.7764 5.72197 11.4963C5.55772 10.918 5.50141 10.7825 5.37104 10.6522C5.03742 10.3186 4.46906 10.3519 4.18725 10.7216C4.14718 10.7741 4.10057 10.8445 4.08363 10.878C4.06671 10.9115 3.95975 11.2723 3.84594 11.6798C3.73213 12.0872 3.62717 12.4463 3.6127 12.4777C3.56852 12.5735 3.48737 12.6558 3.38664 12.7069C3.30473 12.7484 3.2547 12.7575 3.04334 12.7696C2.76031 12.7859 2.66448 12.8174 2.56982 12.9252C2.49508 13.0103 2.46129 13.1087 2.46129 13.2412C2.46129 13.4392 2.55216 13.5907 2.71401 13.6624C2.89454 13.7424 3.33863 13.7181 3.65556 13.6109C3.8546 13.5435 3.98657 13.4588 4.15792 13.2884C4.37027 13.0771 4.45808 12.8926 4.64944 12.2555C4.72969 11.9884 4.80092 11.7698 4.80773 11.7698C4.81454 11.7698 4.93371 12.1444 5.07255 12.6022C5.23565 13.14 5.34314 13.4632 5.37626 13.5155C5.43972 13.6155 5.57364 13.6969 5.6938 13.7085C5.81338 13.72 5.97969 13.6697 6.06237 13.5971C6.09874 13.5652 6.24333 13.3767 6.38367 13.1783C6.524 12.9799 6.65769 12.807 6.68074 12.7942C6.74048 12.761 6.82912 12.765 6.87625 12.803C6.89847 12.821 6.99368 12.989 7.08781 13.1765C7.28245 13.5642 7.30912 13.6034 7.41771 13.6615C7.49569 13.7032 7.50156 13.7034 8.56369 13.7087L9.63129 13.714L10.7142 13.4389C12.1544 13.073 12.107 13.0879 12.306 12.9386C12.4578 12.8248 17.044 8.26047 17.1555 8.11223C17.3652 7.83349 17.4375 7.61284 17.4375 7.25182C17.4375 6.97233 17.4008 6.81741 17.2836 6.60232C17.1809 6.41362 17.0813 6.29716 16.7084 5.92961C16.3302 5.55679 16.2125 5.47219 15.9472 5.38268C15.8224 5.34053 15.7556 5.33063 15.5605 5.32529C15.4057 5.32107 15.2856 5.32778 15.2108 5.34484ZM15.7696 6.349C15.8261 6.37974 15.9744 6.51368 16.1512 6.69351C16.4638 7.01151 16.5042 7.07653 16.5033 7.25989C16.5026 7.42043 16.4527 7.48913 16.0266 7.91701L15.6273 8.31812L15.0374 7.72852L14.4476 7.13892L14.8201 6.76495C15.025 6.55928 15.2279 6.37005 15.2709 6.34443C15.4237 6.2535 15.597 6.25507 15.7696 6.349ZM13.4053 10.5407C12.5416 11.4055 11.8026 12.1371 11.7631 12.1665C11.7032 12.2111 11.5696 12.2497 10.9463 12.4026C10.5365 12.5031 10.1956 12.5798 10.1889 12.573C10.1784 12.5626 10.3856 11.684 10.5095 11.2136L10.5492 11.063L12.1726 9.42599L13.796 7.78899L14.3859 8.37865L14.9758 8.96831L13.4053 10.5407Z" fill="#4F4F4F"/>
</svg>
