<svg width="16" height="16" viewBox="0 0 16 16" fill="none" xmlns="http://www.w3.org/2000/svg">
<path fill-rule="evenodd" clip-rule="evenodd" d="M7.71207 1.03651C7.65588 1.06018 7.59679 1.09069 7.58077 1.10436C7.56475 1.118 6.61415 1.95647 5.4683 2.96761C4.32246 3.97873 2.65031 5.45426 1.7524 6.24657C0.854514 7.03886 0.101005 7.7165 0.0779305 7.75242C-0.0159605 7.89864 -0.0250468 8.04937 0.0508643 8.20144C0.15694 8.41398 0.415014 8.49579 0.634081 8.38632C0.681263 8.36274 0.936692 8.1492 1.22423 7.89293C1.50305 7.64443 1.73472 7.44112 1.73905 7.44112C1.74337 7.44112 1.74946 8.71224 1.75258 10.2658L1.75825 13.0906L1.7964 13.257C1.85179 13.4987 1.89763 13.6298 1.99306 13.8197C2.20985 14.251 2.50583 14.5469 2.93852 14.7647C3.13011 14.8611 3.2617 14.9065 3.5075 14.9611L3.68257 15H7.87554H12.0685L12.2436 14.9611C12.4899 14.9064 12.621 14.8611 12.8147 14.7636C13.2458 14.5467 13.5414 14.2505 13.7591 13.8176C13.8535 13.6298 13.8994 13.4981 13.9547 13.257L13.9928 13.0906L13.9985 10.2658C14.0016 8.71225 14.0082 7.44112 14.0131 7.44112C14.018 7.44112 14.25 7.64457 14.5285 7.89323C14.8145 8.14846 15.071 8.3633 15.1176 8.38662C15.3377 8.49658 15.5934 8.41552 15.6999 8.202C15.7798 8.04197 15.7636 7.8709 15.655 7.72846C15.6282 7.69337 14.8103 6.96148 13.8374 6.10206C8.55459 1.43542 8.16575 1.09491 8.06894 1.0503C7.93317 0.987722 7.83683 0.984009 7.71207 1.03651ZM10.5104 4.33924L13.1277 6.65911V9.76305C13.1277 13.1742 13.132 13.0304 13.0221 13.3051C12.8858 13.6454 12.6411 13.8906 12.3022 14.0265C12.0564 14.1249 11.9563 14.1329 10.9633 14.1329H10.0639V11.9026C10.0639 10.3764 10.0579 9.63948 10.045 9.56836C9.9851 9.24046 9.7237 8.97302 9.39387 8.9022C9.25204 8.87175 6.541 8.86667 6.37752 8.89656C6.04982 8.95645 5.78254 9.21801 5.71176 9.54804C5.69295 9.63573 5.68824 10.096 5.68775 11.8961L5.68714 14.135L4.71112 14.1286C3.76097 14.1224 3.73161 14.1212 3.60379 14.083C3.12185 13.9391 2.82264 13.6399 2.67276 13.1519L2.6324 13.0205L2.62757 9.83994L2.62274 6.65936L5.04269 4.51456C6.37365 3.3349 7.55356 2.28899 7.6647 2.19026C7.77585 2.09155 7.87268 2.01272 7.87992 2.01508C7.88713 2.01746 9.07084 3.06332 10.5104 4.33924ZM9.18858 11.9432V14.1329H7.87554H6.5625V11.9432V9.75345H7.87554H9.18858V11.9432Z" fill="#4F4F4F"/>
</svg>
