<svg width="17" height="14" viewBox="0 0 17 14" fill="none" xmlns="http://www.w3.org/2000/svg">
<path fill-rule="evenodd" clip-rule="evenodd" d="M3.42504 0.597022C3.3986 0.601044 3.31568 0.615385 3.24077 0.62886C2.72132 0.722357 2.2144 1.05693 1.91795 1.50196C1.70844 1.81646 1.60126 2.18469 1.60126 2.59001C1.60126 2.99532 1.70844 3.36356 1.91795 3.67805C2.20983 4.11623 2.68392 4.43412 3.21513 4.54785C3.43936 4.59586 3.74721 4.59586 3.97144 4.54785C4.40805 4.45437 4.8011 4.22777 5.0948 3.90023C5.42089 3.53656 5.58531 3.09739 5.58531 2.59001C5.58531 2.08262 5.42089 1.64345 5.0948 1.27978C4.79996 0.950964 4.40106 0.721556 3.97144 0.633732C3.81457 0.601669 3.52302 0.582072 3.42504 0.597022ZM12.5928 0.603672C12.2441 0.643105 11.8793 0.784432 11.6291 0.977035C11.2282 1.28553 10.9545 1.71886 10.8489 2.21185C10.8009 2.43608 10.8009 2.74393 10.8489 2.96816C10.9424 3.40477 11.169 3.79782 11.4966 4.09152C11.8602 4.41761 12.2994 4.58203 12.8068 4.58203C13.2121 4.58203 13.5803 4.47485 13.8948 4.26534C14.333 3.97346 14.6509 3.49937 14.7646 2.96816C14.8126 2.74393 14.8126 2.43608 14.7646 2.21185C14.6509 1.68064 14.333 1.20655 13.8948 0.914671C13.5346 0.674672 13.0301 0.554191 12.5928 0.603672ZM3.90574 1.42936C4.12682 1.48916 4.24449 1.55766 4.4321 1.73573C4.60645 1.90124 4.72645 2.13539 4.77242 2.39984C4.81419 2.64011 4.78013 2.87378 4.66899 3.10904C4.59179 3.27249 4.51475 3.37319 4.36241 3.5098C4.14957 3.70067 3.91859 3.7826 3.59328 3.7826C3.27314 3.7826 3.04233 3.70208 2.82884 3.51592C2.68475 3.3903 2.59741 3.27595 2.51801 3.10904C2.40657 2.87478 2.37228 2.64062 2.41415 2.39984C2.50715 1.86491 2.89114 1.48459 3.42504 1.3986C3.514 1.38427 3.80877 1.40313 3.90574 1.42936ZM13.0937 1.4287C13.2258 1.46014 13.4316 1.55825 13.5439 1.64329C13.665 1.73503 13.824 1.92152 13.8799 2.0374C13.9669 2.21764 13.9994 2.36776 13.9994 2.59001C13.9994 2.91016 13.9189 3.14096 13.7327 3.35445C13.5088 3.61126 13.227 3.75325 12.8782 3.78507C12.5662 3.81354 12.1747 3.66287 11.9525 3.42882C11.7001 3.16294 11.6148 2.95093 11.6148 2.59001C11.6148 2.22908 11.7001 2.01707 11.9525 1.75119C12.2314 1.45737 12.6807 1.3304 13.0937 1.4287ZM7.82348 3.80093C7.34563 3.85389 7.03019 3.96327 6.6778 4.19817C6.17747 4.5317 5.82952 5.02275 5.67648 5.61139C5.42387 6.58288 5.82872 7.62639 6.6778 8.19241C6.96329 8.38272 7.25257 8.49953 7.59114 8.56122C7.76879 8.59359 8.19761 8.59762 8.36828 8.56854C9.47113 8.38059 10.2841 7.50556 10.3886 6.394C10.4599 5.63633 10.1253 4.84138 9.52998 4.35392C9.18772 4.07367 8.82538 3.90435 8.41105 3.83104C8.28219 3.80824 7.92344 3.78986 7.82348 3.80093ZM8.33623 4.6317C8.89452 4.76162 9.31216 5.13835 9.5101 5.69055C9.55746 5.82268 9.60209 6.06752 9.60209 6.19529C9.60209 6.32306 9.55746 6.5679 9.5101 6.70003C9.36273 7.11114 9.07447 7.44566 8.71279 7.62527C8.47559 7.74306 8.27671 7.78861 7.99974 7.78861C7.54322 7.78861 7.16221 7.62699 6.8627 7.30628C6.67061 7.10058 6.56521 6.92428 6.47709 6.66128C6.37709 6.3628 6.37709 6.02778 6.47709 5.72929C6.56521 5.4663 6.67061 5.28999 6.8627 5.0843C7.11488 4.81427 7.42908 4.6579 7.83149 4.60217C7.92313 4.58946 8.23258 4.60759 8.33623 4.6317ZM2.63989 5.40456C2.01811 5.45374 1.5268 5.63556 1.08561 5.97977C0.93797 6.09496 0.652239 6.38321 0.546372 6.52377C0.20363 6.97884 0.0065093 7.55722 0.000260143 8.12612C-0.0013422 8.27262 0.00391352 8.31473 0.0313778 8.37551C0.0926515 8.51108 0.219686 8.58604 0.388589 8.58626C0.562973 8.58649 0.68842 8.50927 0.748925 8.36443C0.761391 8.33461 0.782783 8.20388 0.796451 8.07394C0.843992 7.62184 0.931112 7.36952 1.15501 7.03538C1.42055 6.63912 1.85009 6.35857 2.37159 6.24075C2.52292 6.20657 2.56262 6.2053 3.66138 6.1995L4.79505 6.19353L4.79521 6.11028C4.79545 5.98852 4.83695 5.6427 4.86577 5.5223C4.87949 5.46502 4.89082 5.41275 4.89095 5.40613C4.89117 5.39492 2.78046 5.39346 2.63989 5.40456ZM11.1089 5.40503C11.1092 5.41225 11.12 5.46141 11.133 5.51429C11.1605 5.62708 11.2041 5.99062 11.2043 6.11028L11.2044 6.19353L12.3381 6.1995C13.4369 6.2053 13.4766 6.20657 13.6279 6.24075C14.1486 6.35838 14.5854 6.64387 14.8456 7.03652C15.0707 7.37615 15.1556 7.62264 15.2031 8.07471C15.2181 8.21719 15.2398 8.33904 15.2574 8.38019C15.313 8.50996 15.4435 8.58604 15.6109 8.58626C15.7865 8.58649 15.9066 8.51191 15.9747 8.36053C16.0261 8.24629 15.9959 7.81126 15.9139 7.48579C15.85 7.23185 15.7196 6.92578 15.5843 6.71219C15.3829 6.39414 15.0132 6.02457 14.6934 5.82148C14.4808 5.68646 14.1741 5.55571 13.9198 5.4917C13.5848 5.40733 13.5516 5.40543 12.29 5.39846C11.6401 5.39485 11.1086 5.39782 11.1089 5.40503ZM6.31728 9.41085C5.46922 9.46671 4.71385 9.81913 4.1214 10.4354C3.55513 11.0244 3.25764 11.7179 3.20117 12.5808C3.17252 13.0184 3.36261 13.3038 3.7354 13.3828C3.89634 13.4169 12.1052 13.4164 12.2663 13.3823C12.6338 13.3044 12.8273 13.0162 12.7989 12.5887C12.7465 11.7967 12.5038 11.1695 12.032 10.6067C11.5687 10.0539 10.9796 9.67993 10.3068 9.51141C9.89306 9.40779 9.95305 9.41061 8.09588 9.40769C7.16612 9.40623 6.36575 9.40766 6.31728 9.41085ZM9.89852 10.2389C10.1795 10.2942 10.456 10.3896 10.6594 10.5017C11.098 10.7432 11.524 11.18 11.7415 11.6112C11.858 11.8423 11.963 12.2122 11.9974 12.5125L12.0079 12.6047H8.00089C5.5486 12.6047 3.99387 12.5989 3.99387 12.5898C3.99387 12.5816 4.00135 12.5186 4.0105 12.4496C4.09237 11.833 4.32216 11.3576 4.73722 10.9462C5.17889 10.5085 5.68065 10.2774 6.3333 10.2113C6.36414 10.2082 7.14649 10.2067 8.07185 10.2081C9.60965 10.2104 9.76671 10.213 9.89852 10.2389Z" fill="#4F4F4F" stroke="#4F4F4F" stroke-width="0.2"/>
</svg>
