<svg width="16" height="22" viewBox="0 0 16 22" fill="none" xmlns="http://www.w3.org/2000/svg">
<path d="M13.7502 3.46064C13.3166 3.9639 13.0155 4.55011 12.618 5.08102C10.5343 7.86 6.99915 10.097 3.62664 11.3634C3.16594 11.5376 2.17225 11.9303 1.72359 11.9856C1.47065 12.016 1.18459 12.0188 1.0521 11.781C0.949716 11.5957 0.997895 11.3856 1.19964 11.275C1.43753 11.1422 2.00965 11.0233 2.30775 10.9155C6.06268 9.56886 9.74232 7.50606 11.9856 4.34826C12.2175 4.02197 12.4042 3.66526 12.633 3.33621C12.6872 3.25879 12.8017 3.18413 12.8348 3.09841C12.8709 3.00439 12.7956 3.06523 12.7625 3.07076C12.4554 3.12606 11.7357 3.40811 11.4918 3.38045C11.3744 3.36663 11.2088 3.24496 11.1787 3.13159C11.0612 2.66151 11.4617 2.58133 11.8471 2.45966C12.2928 2.31864 13.1329 2.08913 13.5846 2.0283C13.8887 1.98682 14.1206 1.95364 14.3012 2.21356C14.521 2.52879 14.9366 3.86989 14.9908 4.25977C15.0239 4.5114 14.9787 4.7575 14.6716 4.82663C13.9369 4.98977 13.9459 3.87542 13.7532 3.46617L13.7502 3.46064Z" fill="#4F4F4F"/>
<path d="M3.30463 13.2692H2.45094C1.85132 13.2692 1.36523 13.6737 1.36523 14.1727V18.0964C1.36523 18.5954 1.85132 18.9999 2.45094 18.9999H3.30463C3.90425 18.9999 4.39033 18.5954 4.39033 18.0964V14.1727C4.39033 13.6737 3.90425 13.2692 3.30463 13.2692Z" stroke="#4F4F4F" stroke-miterlimit="10"/>
<path d="M8.15619 11.5562H7.3025C6.70288 11.5562 6.2168 11.9607 6.2168 12.4597V18.0964C6.2168 18.5954 6.70288 18.9999 7.3025 18.9999H8.15619C8.75581 18.9999 9.24189 18.5954 9.24189 18.0964V12.4597C9.24189 11.9607 8.75581 11.5562 8.15619 11.5562Z" stroke="#4F4F4F" stroke-miterlimit="10"/>
<path d="M13.0078 9.31836H12.1541C11.5544 9.31836 11.0684 9.72289 11.0684 10.2219V18.0964C11.0684 18.5955 11.5544 19 12.1541 19H13.0078C13.6074 19 14.0935 18.5955 14.0935 18.0964V10.2219C14.0935 9.72289 13.6074 9.31836 13.0078 9.31836Z" stroke="#4F4F4F" stroke-miterlimit="10"/>
</svg>
