<svg width="16" height="16" viewBox="0 0 16 16" fill="none" xmlns="http://www.w3.org/2000/svg">
<g id="Wrapper">
<path id="Icon" d="M8.60233 8.29093C8.57776 8.01588 8.33486 7.81284 8.05982 7.83741C7.78477 7.86199 7.58172 8.10488 7.6063 8.37993L8.60233 8.29093ZM11.7938 10.765L11.5295 11.1895L11.5308 11.1902L11.7938 10.765ZM1.50106 10.8367L1.21784 10.4246L1.21631 10.4257L1.50106 10.8367ZM5.76047 8.39057C5.78372 8.11541 5.57952 7.87349 5.30435 7.85023C5.02919 7.82698 4.78728 8.03118 4.76402 8.30635L5.76047 8.39057ZM12.5741 6.85684C12.5741 6.5807 12.3502 6.35684 12.0741 6.35684C11.798 6.35684 11.5741 6.5807 11.5741 6.85684H12.5741ZM14.6163 9.29293L14.8764 8.86587L14.8763 8.86585L14.6163 9.29293ZM13.034 11.8953C12.7589 11.9196 12.5556 12.1623 12.5799 12.4374C12.6042 12.7125 12.8469 12.9158 13.1219 12.8915L13.034 11.8953ZM7.6063 8.37993C7.65745 8.95232 7.88172 9.39455 8.22339 9.73148C8.55216 10.0557 8.96684 10.2599 9.36627 10.4111C9.75799 10.5594 10.2026 10.6793 10.5667 10.7923C10.9529 10.9123 11.2763 11.0318 11.5295 11.1895L12.0581 10.3405C11.6888 10.1106 11.2601 9.96062 10.8633 9.83736C10.4443 9.7072 10.0749 9.6101 9.72029 9.47585C9.37335 9.34452 9.10929 9.20065 8.92554 9.01946C8.75469 8.85097 8.63267 8.63044 8.60233 8.29093L7.6063 8.37993ZM11.5308 11.1902C11.5635 11.2105 11.6398 11.2818 11.7363 11.4523C11.8275 11.6136 11.9151 11.8249 11.9912 12.0685C12.1441 12.5584 12.2325 13.1204 12.2325 13.5528H13.2325C13.2325 13.0082 13.1253 12.3457 12.9458 11.7705C12.8556 11.4817 12.7427 11.2004 12.6066 10.9599C12.4758 10.7286 12.2978 10.4889 12.0568 10.3398L11.5308 11.1902ZM12.2325 13.5528C12.2325 13.4592 12.2841 13.4223 12.2586 13.4457C12.2299 13.4721 12.1589 13.5207 12.0196 13.5795C11.744 13.6958 11.3183 13.8042 10.7662 13.8948C9.67122 14.0745 8.19225 14.1666 6.69958 14.1666C5.2069 14.1666 3.72793 14.0745 2.63294 13.8948C2.08085 13.8042 1.6552 13.6958 1.37954 13.5795C1.24023 13.5207 1.16922 13.4721 1.14053 13.4457C1.11505 13.4223 1.16669 13.4592 1.16669 13.5528H0.166687C0.166687 13.8321 0.312593 14.043 0.463858 14.182C0.611906 14.3181 0.800127 14.4203 0.990739 14.5008C1.37493 14.6629 1.89191 14.7866 2.47099 14.8816C3.63833 15.0732 5.17581 15.1666 6.69958 15.1666C8.22335 15.1666 9.76082 15.0732 10.9282 14.8816C11.5072 14.7866 12.0242 14.6629 12.4084 14.5008C12.599 14.4203 12.7872 14.3181 12.9353 14.182C13.0866 14.043 13.2325 13.8321 13.2325 13.5528H12.2325ZM1.16669 13.5528C1.16669 13.1488 1.245 12.6002 1.38175 12.1156C1.44978 11.8745 1.52825 11.6637 1.6103 11.502C1.69836 11.3285 1.76552 11.2617 1.7858 11.2477L1.21631 10.4257C0.992154 10.581 0.832793 10.8244 0.718575 11.0494C0.598344 11.2863 0.498781 11.5624 0.419326 11.844C0.261113 12.4048 0.166687 13.045 0.166687 13.5528H1.16669ZM1.78427 11.2487C2.02648 11.0822 2.34421 10.9592 2.7326 10.8397C3.09086 10.7294 3.55769 10.6101 3.95161 10.4686C4.36018 10.3218 4.78856 10.1207 5.12817 9.78948C5.48169 9.44468 5.71002 8.98744 5.76047 8.39057L4.76402 8.30635C4.73299 8.67349 4.60443 8.90343 4.42994 9.07361C4.24155 9.25735 3.97082 9.39908 3.61347 9.52748C3.24146 9.66114 2.87555 9.74943 2.43855 9.88387C2.03168 10.009 1.59163 10.1677 1.21785 10.4246L1.78427 11.2487ZM6.70284 9.31092C8.42787 9.31092 9.96669 7.47403 9.96669 4.53149H8.96669C8.96669 7.22972 7.61128 8.31092 6.70284 8.31092V9.31092ZM9.96669 4.53149C9.96669 3.3784 9.68446 2.44171 9.0967 1.78925C8.50172 1.12878 7.66058 0.833313 6.70284 0.833313V1.83331C7.45294 1.83331 7.99373 2.05894 8.35371 2.45855C8.72091 2.86618 8.96669 3.52858 8.96669 4.53149H9.96669ZM6.70284 0.833313C5.74509 0.833313 4.90395 1.12878 4.30897 1.78925C3.72121 2.44171 3.43898 3.3784 3.43898 4.53149H4.43898C4.43898 3.52858 4.68476 2.86618 5.05196 2.45855C5.41195 2.05894 5.95273 1.83331 6.70284 1.83331V0.833313ZM3.43898 4.53149C3.43898 7.48112 4.97823 9.31092 6.70284 9.31092V8.31092C5.79396 8.31092 4.43898 7.23565 4.43898 4.53149H3.43898ZM11.5741 6.85684C11.5741 7.84288 12.0985 8.43874 12.6981 8.83979C12.9871 9.03307 13.3035 9.18884 13.587 9.32529C13.8825 9.46744 14.1366 9.58624 14.3563 9.72001L14.8763 8.86585C14.6039 8.69999 14.2942 8.55581 14.0206 8.42418C13.7353 8.28686 13.4776 8.15806 13.2541 8.00856C12.8287 7.72406 12.5741 7.4015 12.5741 6.85684H11.5741ZM14.3563 9.71999C14.3528 9.71784 14.3644 9.72441 14.3882 9.75193C14.4113 9.77879 14.4397 9.81838 14.4713 9.87317C14.5352 9.98377 14.5987 10.1327 14.655 10.3089C14.7683 10.6639 14.8334 11.0701 14.8334 11.3773H15.8334C15.8334 10.9549 15.7485 10.446 15.6076 10.0047C15.5367 9.78273 15.4471 9.56325 15.3374 9.37321C15.2327 9.19195 15.0844 8.99255 14.8764 8.86587L14.3563 9.71999ZM14.8334 11.3773C14.8334 11.2839 14.8808 11.2674 14.8222 11.3268C14.7715 11.3782 14.6726 11.4521 14.5104 11.532C14.1887 11.6904 13.6875 11.8376 13.034 11.8953L13.1219 12.8915C13.8698 12.8254 14.4964 12.6535 14.952 12.4292C15.1784 12.3177 15.3807 12.1845 15.5339 12.0292C15.6791 11.8821 15.8334 11.6595 15.8334 11.3773H14.8334ZM8.88746 6.98055C9.33678 7.62306 9.97858 8.0082 10.6531 8.0082V7.0082C10.3758 7.0082 10.0138 6.84621 9.70695 6.40746L8.88746 6.98055ZM10.6531 8.0082C11.9993 8.0082 13.2064 6.56533 13.2064 4.35562H12.2064C12.2064 6.30158 11.1972 7.0082 10.6531 7.0082V8.0082ZM13.2064 4.35562C13.2064 3.47827 12.9773 2.75339 12.5063 2.24433C12.0307 1.73039 11.3712 1.50421 10.6531 1.50421V2.50421C11.1604 2.50421 11.5276 2.65909 11.7723 2.92352C12.0215 3.19283 12.2064 3.64366 12.2064 4.35562H13.2064ZM10.6531 1.50421C9.93514 1.50421 9.28543 1.72917 8.82823 2.25632L9.58367 2.91153C9.80439 2.65705 10.1455 2.50421 10.6531 2.50421V1.50421Z" fill="#4F4F4F"/>
</g>
</svg>
