<svg xmlns="http://www.w3.org/2000/svg" viewBox="55 0 17 17">
  <rect x="55" y="0" width="17" height="17" rx="3" fill="#26344b"/>
  <path d="M69.07 13.626q0 .568.13.864.152.294.324.337.195.021.325.147.15.127.151.4 0 .4-.562.548-.54.148-1.665.148-1.015 0-1.492-.274-.454-.275-.54-.948-.866 1.305-3.048 1.306-1.731 0-2.898-1.096-1.145-1.116-1.145-3.054V8.485q0-.548-.433-1.053-.432-.506-.432-.716V6.63q0-.42.497-.484l3.221-.422q1.017-.126 1.017.422l-.065 6.236q-.022 1.264.302 1.833.346.547 1.081.547.606 0 1.017-.568.41-.59.41-1.538V8.485q0-.548-.432-1.053-.433-.506-.433-.716V6.63q0-.42.498-.484l3.221-.422q.951-.126.951.422zm-8.31-9.141a.643.643 0 0 1-.893 0L58.447 3.1a.604.604 0 0 1 0-.87l1.42-1.384a.643.643 0 0 1 .893 0l1.42 1.384c.246.24.246.63 0 .87zm6.525 0a.643.643 0 0 1-.893 0L64.972 3.1a.604.604 0 0 1 0-.87l1.42-1.384a.643.643 0 0 1 .892 0l1.42 1.384c.247.24.247.63 0 .87z" fill="white"/>
</svg>
